<svg xmlns="http://www.w3.org/2000/svg">
    <defs>
        <symbol id="arrow-left-right" viewBox="0 0 24 24" fill="none">
            <path
                d="M22.2807 12.5306L19.2807 15.5306C19.14 15.6713 18.9491 15.7503 18.7501 15.7503C18.5511 15.7503 18.3602 15.6713 18.2195 15.5306C18.0787 15.3898 17.9997 15.199 17.9997 14.9999C17.9997 14.8009 18.0787 14.61 18.2195 14.4693L19.9398 12.7499H4.06041L5.78073 14.4693C5.92146 14.61 6.00052 14.8009 6.00052 14.9999C6.00052 15.199 5.92146 15.3898 5.78073 15.5306C5.64 15.6713 5.44912 15.7503 5.2501 15.7503C5.05108 15.7503 4.86021 15.6713 4.71948 15.5306L1.71948 12.5306C1.64974 12.4609 1.59443 12.3782 1.55668 12.2871C1.51894 12.1961 1.49951 12.0985 1.49951 11.9999C1.49951 11.9014 1.51894 11.8038 1.55668 11.7127C1.59443 11.6217 1.64974 11.539 1.71948 11.4693L4.71948 8.4693C4.86021 8.32857 5.05108 8.24951 5.2501 8.24951C5.44912 8.24951 5.64 8.32857 5.78073 8.4693C5.92146 8.61003 6.00052 8.80091 6.00052 8.99993C6.00052 9.19895 5.92146 9.38982 5.78073 9.53055L4.06041 11.2499H19.9398L18.2195 9.53055C18.0787 9.38982 17.9997 9.19895 17.9997 8.99993C17.9997 8.80091 18.0787 8.61003 18.2195 8.4693C18.3602 8.32857 18.5511 8.24951 18.7501 8.24951C18.9491 8.24951 19.14 8.32857 19.2807 8.4693L22.2807 11.4693C22.3505 11.539 22.4058 11.6217 22.4435 11.7127C22.4813 11.8038 22.5007 11.9014 22.5007 11.9999C22.5007 12.0985 22.4813 12.1961 22.4435 12.2871C22.4058 12.3782 22.3505 12.4609 22.2807 12.5306Z"
                fill="currentColor" />
        </symbol>
        <symbol id="arrow-left" viewBox="0 0 18 18" fill="none">
            <path
                d="M6.32812 15.3281L7.34766 14.3086L2.77734 9.7207H18V8.2793H2.77734L7.34766 3.69141L6.32812 2.67188L0 9L6.32812 15.3281Z"
                fill="currentColor" />
        </symbol>
        <symbol id="arrow-right" viewBox="0 0 18 18" fill="none">
            <path
                d="M11.6719 2.67188L10.6523 3.69141L15.2227 8.2793H0V9.7207H15.2227L10.6523 14.3086L11.6719 15.3281L18 9L11.6719 2.67188Z"
                fill="currentColor" />
        </symbol>
        <symbol id="bed" width="24" height="24" viewBox="0 0 24 24" fill="none">
            <path
                d="M20.25 6.75H3V4.5C3 4.30109 2.92098 4.11032 2.78033 3.96967C2.63968 3.82902 2.44891 3.75 2.25 3.75C2.05109 3.75 1.86032 3.82902 1.71967 3.96967C1.57902 4.11032 1.5 4.30109 1.5 4.5V19.5C1.5 19.6989 1.57902 19.8897 1.71967 20.0303C1.86032 20.171 2.05109 20.25 2.25 20.25C2.44891 20.25 2.63968 20.171 2.78033 20.0303C2.92098 19.8897 3 19.6989 3 19.5V16.5H22.5V19.5C22.5 19.6989 22.579 19.8897 22.7197 20.0303C22.8603 20.171 23.0511 20.25 23.25 20.25C23.4489 20.25 23.6397 20.171 23.7803 20.0303C23.921 19.8897 24 19.6989 24 19.5V10.5C24 9.50544 23.6049 8.55161 22.9016 7.84835C22.1984 7.14509 21.2446 6.75 20.25 6.75ZM3 8.25H9.75V15H3V8.25ZM11.25 15V8.25H20.25C20.8467 8.25 21.419 8.48705 21.841 8.90901C22.2629 9.33097 22.5 9.90326 22.5 10.5V15H11.25Z"
                fill="currentColor" />
        </symbol>
        <symbol id="bike" viewBox="0 0 40 40" fill="none">
            <path
                d="M25.625 12.5C26.4903 12.5 27.3362 12.2434 28.0556 11.7627C28.7751 11.282 29.3358 10.5987 29.667 9.79924C29.9981 8.99982 30.0847 8.12015 29.9159 7.27148C29.7471 6.42282 29.3305 5.64326 28.7186 5.03141C28.1067 4.41956 27.3272 4.00288 26.4785 3.83407C25.6299 3.66526 24.7502 3.7519 23.9508 4.08303C23.1513 4.41416 22.4681 4.97492 21.9873 5.69438C21.5066 6.41385 21.25 7.25971 21.25 8.125C21.25 9.28532 21.7109 10.3981 22.5314 11.2186C23.3519 12.0391 24.4647 12.5 25.625 12.5ZM25.625 6.25C25.9958 6.25 26.3584 6.35997 26.6667 6.566C26.975 6.77202 27.2154 7.06486 27.3573 7.40747C27.4992 7.75008 27.5363 8.12708 27.464 8.4908C27.3916 8.85451 27.2131 9.1886 26.9508 9.45083C26.6886 9.71305 26.3545 9.89163 25.9908 9.96397C25.6271 10.0363 25.2501 9.99919 24.9075 9.85728C24.5649 9.71536 24.272 9.47504 24.066 9.1667C23.86 8.85835 23.75 8.49584 23.75 8.125C23.75 7.62772 23.9475 7.15081 24.2992 6.79918C24.6508 6.44755 25.1277 6.25 25.625 6.25ZM31.25 21.25C30.0139 21.25 28.8055 21.6166 27.7777 22.3033C26.7499 22.9901 25.9488 23.9662 25.4758 25.1082C25.0027 26.2503 24.8789 27.5069 25.1201 28.7193C25.3613 29.9317 25.9565 31.0453 26.8306 31.9194C27.7047 32.7935 28.8183 33.3888 30.0307 33.6299C31.2431 33.8711 32.4997 33.7473 33.6418 33.2743C34.7838 32.8012 35.7599 32.0001 36.4467 30.9723C37.1334 29.9445 37.5 28.7361 37.5 27.5C37.5 25.8424 36.8415 24.2527 35.6694 23.0806C34.4973 21.9085 32.9076 21.25 31.25 21.25ZM31.25 31.25C30.5083 31.25 29.7833 31.0301 29.1666 30.618C28.5499 30.206 28.0693 29.6203 27.7855 28.9351C27.5016 28.2498 27.4274 27.4958 27.5721 26.7684C27.7168 26.041 28.0739 25.3728 28.5984 24.8484C29.1228 24.3239 29.791 23.9668 30.5184 23.8221C31.2458 23.6774 31.9998 23.7516 32.6851 24.0355C33.3703 24.3193 33.956 24.7999 34.368 25.4166C34.7801 26.0333 35 26.7583 35 27.5C35 28.4946 34.6049 29.4484 33.9017 30.1517C33.1984 30.8549 32.2446 31.25 31.25 31.25ZM8.75 21.25C7.51387 21.25 6.3055 21.6166 5.27769 22.3033C4.24988 22.9901 3.4488 23.9662 2.97576 25.1082C2.50271 26.2503 2.37894 27.5069 2.62009 28.7193C2.86125 29.9317 3.45651 31.0453 4.33059 31.9194C5.20466 32.7935 6.31831 33.3888 7.53069 33.6299C8.74307 33.8711 9.99974 33.7473 11.1418 33.2743C12.2838 32.8012 13.2599 32.0001 13.9467 30.9723C14.6334 29.9445 15 28.7361 15 27.5C15 26.6792 14.8383 25.8665 14.5243 25.1082C14.2102 24.3499 13.7498 23.661 13.1694 23.0806C12.5891 22.5002 11.9001 22.0398 11.1418 21.7258C10.3835 21.4117 9.57076 21.25 8.75 21.25ZM8.75 31.25C8.00832 31.25 7.2833 31.0301 6.66661 30.618C6.04993 30.206 5.56928 29.6203 5.28545 28.9351C5.00163 28.2498 4.92736 27.4958 5.07206 26.7684C5.21675 26.041 5.57391 25.3728 6.09835 24.8484C6.6228 24.3239 7.29099 23.9668 8.01841 23.8221C8.74584 23.6774 9.49984 23.7516 10.1851 24.0355C10.8703 24.3193 11.456 24.7999 11.868 25.4166C12.2801 26.0333 12.5 26.7583 12.5 27.5C12.5 28.4946 12.1049 29.4484 11.4017 30.1517C10.6984 30.8549 9.74457 31.25 8.75 31.25ZM30 18.75H23.75C23.5858 18.7501 23.4232 18.7179 23.2714 18.6552C23.1197 18.5924 22.9818 18.5004 22.8656 18.3844L18.75 14.2672L15.5172 17.5L20.8844 22.8656C21.0004 22.9818 21.0924 23.1197 21.1552 23.2714C21.2179 23.4232 21.2501 23.5858 21.25 23.75V31.25C21.25 31.5815 21.1183 31.8995 20.8839 32.1339C20.6495 32.3683 20.3315 32.5 20 32.5C19.6685 32.5 19.3505 32.3683 19.1161 32.1339C18.8817 31.8995 18.75 31.5815 18.75 31.25V24.2672L12.8656 18.3844C12.7494 18.2683 12.6572 18.1304 12.5943 17.9787C12.5314 17.8269 12.499 17.6643 12.499 17.5C12.499 17.3357 12.5314 17.1731 12.5943 17.0213C12.6572 16.8696 12.7494 16.7317 12.8656 16.6156L17.8656 11.6156C17.9817 11.4994 18.1196 11.4072 18.2713 11.3443C18.4231 11.2814 18.5857 11.249 18.75 11.249C18.9143 11.249 19.0769 11.2814 19.2287 11.3443C19.3804 11.4072 19.5183 11.4994 19.6344 11.6156L24.2672 16.25H30C30.3315 16.25 30.6495 16.3817 30.8839 16.6161C31.1183 16.8505 31.25 17.1685 31.25 17.5C31.25 17.8315 31.1183 18.1495 30.8839 18.3839C30.6495 18.6183 30.3315 18.75 30 18.75Z"
                fill="currentColor" />
        </symbol>
        <symbol id="calendar" viewBox="0 0 24 24" fill="none">
            <path
                d="M19.5 3H17.25V2.25C17.25 2.05109 17.171 1.86032 17.0303 1.71967C16.8897 1.57902 16.6989 1.5 16.5 1.5C16.3011 1.5 16.1103 1.57902 15.9697 1.71967C15.829 1.86032 15.75 2.05109 15.75 2.25V3H8.25V2.25C8.25 2.05109 8.17098 1.86032 8.03033 1.71967C7.88968 1.57902 7.69891 1.5 7.5 1.5C7.30109 1.5 7.11032 1.57902 6.96967 1.71967C6.82902 1.86032 6.75 2.05109 6.75 2.25V3H4.5C4.10218 3 3.72064 3.15804 3.43934 3.43934C3.15804 3.72064 3 4.10218 3 4.5V19.5C3 19.8978 3.15804 20.2794 3.43934 20.5607C3.72064 20.842 4.10218 21 4.5 21H19.5C19.8978 21 20.2794 20.842 20.5607 20.5607C20.842 20.2794 21 19.8978 21 19.5V4.5C21 4.10218 20.842 3.72064 20.5607 3.43934C20.2794 3.15804 19.8978 3 19.5 3ZM6.75 4.5V5.25C6.75 5.44891 6.82902 5.63968 6.96967 5.78033C7.11032 5.92098 7.30109 6 7.5 6C7.69891 6 7.88968 5.92098 8.03033 5.78033C8.17098 5.63968 8.25 5.44891 8.25 5.25V4.5H15.75V5.25C15.75 5.44891 15.829 5.63968 15.9697 5.78033C16.1103 5.92098 16.3011 6 16.5 6C16.6989 6 16.8897 5.92098 17.0303 5.78033C17.171 5.63968 17.25 5.44891 17.25 5.25V4.5H19.5V7.5H4.5V4.5H6.75ZM19.5 19.5H4.5V9H19.5V19.5ZM13.125 12.375C13.125 12.5975 13.059 12.815 12.9354 13C12.8118 13.185 12.6361 13.3292 12.4305 13.4144C12.225 13.4995 11.9988 13.5218 11.7805 13.4784C11.5623 13.435 11.3618 13.3278 11.2045 13.1705C11.0472 13.0132 10.94 12.8127 10.8966 12.5945C10.8532 12.3762 10.8755 12.15 10.9606 11.9445C11.0458 11.7389 11.19 11.5632 11.375 11.4396C11.56 11.316 11.7775 11.25 12 11.25C12.2984 11.25 12.5845 11.3685 12.7955 11.5795C13.0065 11.7905 13.125 12.0766 13.125 12.375ZM17.25 12.375C17.25 12.5975 17.184 12.815 17.0604 13C16.9368 13.185 16.7611 13.3292 16.5555 13.4144C16.35 13.4995 16.1238 13.5218 15.9055 13.4784C15.6873 13.435 15.4868 13.3278 15.3295 13.1705C15.1722 13.0132 15.065 12.8127 15.0216 12.5945C14.9782 12.3762 15.0005 12.15 15.0856 11.9445C15.1708 11.7389 15.315 11.5632 15.5 11.4396C15.685 11.316 15.9025 11.25 16.125 11.25C16.4234 11.25 16.7095 11.3685 16.9205 11.5795C17.1315 11.7905 17.25 12.0766 17.25 12.375ZM9 16.125C9 16.3475 8.93402 16.565 8.8104 16.75C8.68679 16.935 8.51109 17.0792 8.30552 17.1644C8.09995 17.2495 7.87375 17.2718 7.65552 17.2284C7.43729 17.185 7.23684 17.0778 7.0795 16.9205C6.92217 16.7632 6.81502 16.5627 6.77162 16.3445C6.72821 16.1262 6.75049 15.9 6.83564 15.6945C6.92078 15.4889 7.06498 15.3132 7.24998 15.1896C7.43499 15.066 7.6525 15 7.875 15C8.17337 15 8.45952 15.1185 8.6705 15.3295C8.88147 15.5405 9 15.8266 9 16.125ZM13.125 16.125C13.125 16.3475 13.059 16.565 12.9354 16.75C12.8118 16.935 12.6361 17.0792 12.4305 17.1644C12.225 17.2495 11.9988 17.2718 11.7805 17.2284C11.5623 17.185 11.3618 17.0778 11.2045 16.9205C11.0472 16.7632 10.94 16.5627 10.8966 16.3445C10.8532 16.1262 10.8755 15.9 10.9606 15.6945C11.0458 15.4889 11.19 15.3132 11.375 15.1896C11.56 15.066 11.7775 15 12 15C12.2984 15 12.5845 15.1185 12.7955 15.3295C13.0065 15.5405 13.125 15.8266 13.125 16.125ZM17.25 16.125C17.25 16.3475 17.184 16.565 17.0604 16.75C16.9368 16.935 16.7611 17.0792 16.5555 17.1644C16.35 17.2495 16.1238 17.2718 15.9055 17.2284C15.6873 17.185 15.4868 17.0778 15.3295 16.9205C15.1722 16.7632 15.065 16.5627 15.0216 16.3445C14.9782 16.1262 15.0005 15.9 15.0856 15.6945C15.1708 15.4889 15.315 15.3132 15.5 15.1896C15.685 15.066 15.9025 15 16.125 15C16.4234 15 16.7095 15.1185 16.9205 15.3295C17.1315 15.5405 17.25 15.8266 17.25 16.125Z"
                fill="currentColor" />
        </symbol>
        <symbol id="chevron-down" viewBox="0 0 20 20" fill="none">
            <g opacity="0.5">
                <path d="M16.25 7.5L10 13.75L3.75 7.5" stroke="currentColor" stroke-width="1.25" stroke-linecap="round"
                    stroke-linejoin="round" />
            </g>
        </symbol>
        <symbol id="flower-lotus" viewBox="0 0 40 40" fill="none">
            <path
                d="M38.4107 19.0047C38.2513 18.7246 38.0376 18.479 37.7822 18.2824C37.5268 18.0857 37.2348 17.9419 36.9232 17.8594C35.7928 17.5684 34.6247 17.4514 33.4591 17.5125C34.0841 14.4109 33.6154 11.9578 33.1373 10.5031C32.9467 9.90557 32.5404 9.40041 31.9976 9.08612C31.4548 8.77183 30.8144 8.67094 30.2013 8.80312C28.6114 9.15723 27.0995 9.79903 25.7404 10.6969C24.745 8.6635 23.2957 6.88601 21.5044 5.50156C21.0704 5.17599 20.5424 5 19.9998 5C19.4571 5 18.9292 5.17599 18.4951 5.50156C16.7034 6.88561 15.2541 8.6632 14.2591 10.6969C12.9 9.79903 11.3882 9.15723 9.7982 8.80312C9.18508 8.67094 8.5447 8.77183 8.00191 9.08612C7.45913 9.40041 7.05284 9.90557 6.86226 10.5031C6.39351 11.9578 5.92476 14.4094 6.54039 17.5125C5.37478 17.4514 4.20668 17.5684 3.07632 17.8594C2.76474 17.9419 2.47273 18.0857 2.21733 18.2824C1.96193 18.479 1.74827 18.7246 1.58882 19.0047C1.42196 19.2916 1.31391 19.609 1.27099 19.9381C1.22806 20.2673 1.25113 20.6017 1.33882 20.9219C1.86851 22.8859 3.49507 26.6219 8.42164 29.5656C13.3482 32.5094 17.6763 32.5 20.0076 32.5C22.3388 32.5 26.6748 32.5 31.5701 29.5656C36.4966 26.6219 38.1232 22.8859 38.6529 20.9219C38.7418 20.6022 38.7661 20.2681 38.7245 19.9389C38.6829 19.6098 38.5763 19.2922 38.4107 19.0047ZM9.24039 11.2719C9.24225 11.2641 9.24702 11.2574 9.2537 11.253C9.26038 11.2487 9.26847 11.247 9.27632 11.2484C10.7302 11.5769 12.1022 12.1972 13.3091 13.0719C12.7596 14.8696 12.4867 16.7405 12.4998 18.6203C12.4998 21.5484 13.0888 23.9328 13.9232 25.8516C12.737 24.6643 11.7107 23.3276 10.8701 21.875C8.05445 16.9719 8.64039 13.125 9.24039 11.2719ZM9.70914 27.4203C5.54195 24.9328 4.19039 21.8828 3.74976 20.2656C4.89948 19.9826 6.09251 19.9205 7.26539 20.0828C7.65695 21.1317 8.13516 22.1461 8.69507 23.1156C10.0698 25.4858 11.8709 27.5815 14.0076 29.2969C12.4967 28.8625 11.0494 28.2316 9.70289 27.4203H9.70914ZM19.9998 29.75C18.5419 28.6656 14.9998 25.3391 14.9998 18.6203C14.9998 11.9844 18.4966 8.63125 19.9998 7.5C21.5029 8.63438 24.9998 11.9875 24.9998 18.6234C24.9998 25.3391 21.4576 28.6656 19.9998 29.75ZM26.6904 13.0719C27.8974 12.1978 29.2694 11.578 30.7232 11.25C30.7311 11.2486 30.7391 11.2502 30.7458 11.2546C30.7525 11.2589 30.7573 11.2657 30.7591 11.2734C31.3591 13.125 31.9451 16.9719 29.1294 21.875C28.2896 23.3295 27.2632 24.6679 26.0763 25.8562C26.9107 23.9406 27.4998 21.5531 27.4998 18.625C27.5133 16.7436 27.2404 14.8711 26.6904 13.0719ZM36.2498 20.2688C35.8169 21.8703 34.4685 24.9266 30.2982 27.4203C28.9516 28.231 27.5043 28.8614 25.9935 29.2953C28.1301 27.5799 29.9312 25.4843 31.306 23.1141C31.8659 22.1446 32.3441 21.1301 32.7357 20.0813C33.9082 19.9197 35.1008 19.9828 36.2498 20.2672V20.2688Z"
                fill="currentColor" />
        </symbol>
        <symbol id="images" viewBox="0 0 32 32" fill="none">
            <path
                d="M27 5H9C8.46957 5 7.96086 5.21071 7.58579 5.58579C7.21071 5.96086 7 6.46957 7 7V9H5C4.46957 9 3.96086 9.21071 3.58579 9.58579C3.21071 9.96086 3 10.4696 3 11V25C3 25.5304 3.21071 26.0391 3.58579 26.4142C3.96086 26.7893 4.46957 27 5 27H23C23.5304 27 24.0391 26.7893 24.4142 26.4142C24.7893 26.0391 25 25.5304 25 25V23H27C27.5304 23 28.0391 22.7893 28.4142 22.4142C28.7893 22.0391 29 21.5304 29 21V7C29 6.46957 28.7893 5.96086 28.4142 5.58579C28.0391 5.21071 27.5304 5 27 5ZM9 7H27V14.8438L25.7412 13.5863C25.5555 13.4005 25.335 13.2531 25.0923 13.1526C24.8497 13.052 24.5896 13.0003 24.3269 13.0003C24.0642 13.0003 23.8041 13.052 23.5614 13.1526C23.3187 13.2531 23.0982 13.4005 22.9125 13.5863L20.4125 16.0863L14.9125 10.5863C14.5375 10.2115 14.029 10.0009 13.4987 10.0009C12.9685 10.0009 12.46 10.2115 12.085 10.5863L9 13.6713V7ZM23 25H5V11H7V21C7 21.5304 7.21071 22.0391 7.58579 22.4142C7.96086 22.7893 8.46957 23 9 23H23V25ZM27 21H9V16.5L13.5 12L19.7075 18.2075C19.895 18.3949 20.1493 18.5002 20.4144 18.5002C20.6795 18.5002 20.9337 18.3949 21.1213 18.2075L24.3288 15L27 17.6725V21ZM20 10.5C20 10.2033 20.088 9.91332 20.2528 9.66665C20.4176 9.41997 20.6519 9.22771 20.926 9.11418C21.2001 9.00065 21.5017 8.97094 21.7926 9.02882C22.0836 9.0867 22.3509 9.22956 22.5607 9.43934C22.7704 9.64912 22.9133 9.91639 22.9712 10.2074C23.0291 10.4983 22.9993 10.7999 22.8858 11.074C22.7723 11.3481 22.58 11.5824 22.3334 11.7472C22.0867 11.912 21.7967 12 21.5 12C21.1022 12 20.7206 11.842 20.4393 11.5607C20.158 11.2794 20 10.8978 20 10.5Z"
                fill="currentColor" />
        </symbol>
        <symbol id="mail" viewBox="0 0 24 24" fill="none">
            <path
                d="M21 4.5H3C2.80109 4.5 2.61032 4.57902 2.46967 4.71967C2.32902 4.86032 2.25 5.05109 2.25 5.25V18C2.25 18.3978 2.40804 18.7794 2.68934 19.0607C2.97064 19.342 3.35218 19.5 3.75 19.5H20.25C20.6478 19.5 21.0294 19.342 21.3107 19.0607C21.592 18.7794 21.75 18.3978 21.75 18V5.25C21.75 5.05109 21.671 4.86032 21.5303 4.71967C21.3897 4.57902 21.1989 4.5 21 4.5ZM12 12.4828L4.92844 6H19.0716L12 12.4828ZM9.25406 12L3.75 17.0447V6.95531L9.25406 12ZM10.3641 13.0172L11.4891 14.0531C11.6274 14.1801 11.8084 14.2506 11.9963 14.2506C12.1841 14.2506 12.3651 14.1801 12.5034 14.0531L13.6284 13.0172L19.0659 18H4.92844L10.3641 13.0172ZM14.7459 12L20.25 6.95438V17.0456L14.7459 12Z"
                fill="currentColor" />
        </symbol>
        <symbol id="phone" viewBox="0 0 24 24" fill="none">
            <path
                d="M20.8472 14.8554L16.4306 12.8764L16.4184 12.8707C16.1892 12.7727 15.939 12.7333 15.6907 12.7562C15.4424 12.7792 15.2037 12.8636 14.9963 13.002C14.9718 13.0181 14.9484 13.0357 14.9259 13.0545L12.6441 14.9998C11.1984 14.2976 9.70595 12.8164 9.00376 11.3895L10.9519 9.07294C10.9706 9.0495 10.9884 9.02606 11.0053 9.00075C11.1407 8.79384 11.2229 8.55667 11.2445 8.31035C11.2661 8.06402 11.2264 7.81618 11.1291 7.58887V7.57762L9.14438 3.15356C9.0157 2.85662 8.79444 2.60926 8.51362 2.44841C8.2328 2.28756 7.9075 2.22184 7.58626 2.26106C6.31592 2.42822 5.14986 3.05209 4.30588 4.01615C3.4619 4.98021 2.99771 6.21852 3.00001 7.49981C3.00001 14.9436 9.05626 20.9998 16.5 20.9998C17.7813 21.0021 19.0196 20.5379 19.9837 19.6939C20.9477 18.85 21.5716 17.6839 21.7388 16.4136C21.7781 16.0924 21.7125 15.7672 21.5518 15.4864C21.3911 15.2056 21.144 14.9843 20.8472 14.8554ZM16.5 19.4998C13.3185 19.4963 10.2682 18.2309 8.01856 15.9813C5.76888 13.7316 4.50348 10.6813 4.50001 7.49981C4.49648 6.58433 4.82631 5.69887 5.42789 5.00879C6.02947 4.3187 6.86167 3.87118 7.76907 3.74981C7.7687 3.75355 7.7687 3.75732 7.76907 3.76106L9.73782 8.16731L7.80001 10.4867C7.78034 10.5093 7.76247 10.5335 7.74657 10.5589C7.60549 10.7754 7.52273 11.0246 7.5063 11.2825C7.48988 11.5404 7.54035 11.7981 7.65282 12.0307C8.5022 13.7679 10.2525 15.5051 12.0084 16.3536C12.2428 16.465 12.502 16.5137 12.7608 16.495C13.0196 16.4762 13.2692 16.3907 13.485 16.2467C13.5091 16.2305 13.5322 16.2129 13.5544 16.1942L15.8334 14.2498L20.2397 16.2232C20.2397 16.2232 20.2472 16.2232 20.25 16.2232C20.1301 17.1319 19.6833 17.9658 18.9931 18.5689C18.3028 19.172 17.4166 19.5029 16.5 19.4998Z"
                fill="currentColor" />
        </symbol>
        <symbol id="ski" viewBox="0 0 40 40" fill="none">
            <path
                d="M26.8752 13.75C27.7405 13.75 28.5863 13.4934 29.3058 13.0127C30.0253 12.532 30.586 11.8487 30.9171 11.0492C31.2483 10.2498 31.3349 9.37015 31.1661 8.52148C30.9973 7.67281 30.5806 6.89326 29.9688 6.28141C29.3569 5.66956 28.5774 5.25288 27.7287 5.08407C26.88 4.91526 26.0004 5.0019 25.2009 5.33303C24.4015 5.66416 23.7182 6.22492 23.2375 6.94438C22.7568 7.66385 22.5002 8.50971 22.5002 9.375C22.5002 10.5353 22.9611 11.6481 23.7816 12.4686C24.6021 13.2891 25.7149 13.75 26.8752 13.75ZM26.8752 7.5C27.246 7.5 27.6085 7.60997 27.9169 7.816C28.2252 8.02202 28.4655 8.31486 28.6074 8.65747C28.7494 9.00008 28.7865 9.37708 28.7141 9.7408C28.6418 10.1045 28.4632 10.4386 28.201 10.7008C27.9388 10.9631 27.6047 11.1416 27.241 11.214C26.8773 11.2863 26.5003 11.2492 26.1576 11.1073C25.815 10.9654 25.5222 10.725 25.3162 10.4167C25.1101 10.1084 25.0002 9.74584 25.0002 9.375C25.0002 8.87772 25.1977 8.40081 25.5494 8.04918C25.901 7.69755 26.3779 7.5 26.8752 7.5ZM5.05018 12.15C5.09614 11.9924 5.17269 11.8454 5.27546 11.7174C5.37823 11.5894 5.5052 11.4829 5.64913 11.404C5.79307 11.3251 5.95113 11.2752 6.11431 11.2574C6.27749 11.2396 6.44259 11.254 6.60018 11.3L17.5002 14.4797L19.1127 12.8656C19.2288 12.7494 19.3666 12.6572 19.5184 12.5943C19.6701 12.5314 19.8328 12.499 19.9971 12.499C20.1613 12.499 20.324 12.5314 20.4757 12.5943C20.6275 12.6572 20.7653 12.7494 20.8814 12.8656L25.5174 17.5H31.2502C31.5817 17.5 31.8996 17.6317 32.1341 17.8661C32.3685 18.1005 32.5002 18.4185 32.5002 18.75C32.5002 19.0815 32.3685 19.3995 32.1341 19.6339C31.8996 19.8683 31.5817 20 31.2502 20H25.0002C24.836 20.0001 24.6734 19.9679 24.5216 19.9052C24.3699 19.8424 24.232 19.7504 24.1158 19.6344L23.2392 18.75L5.89549 13.6938C5.57951 13.5999 5.3134 13.385 5.15508 13.0959C4.99677 12.8067 4.95906 12.4668 5.05018 12.15ZM36.9439 31.9125C35.6184 32.7982 34.1148 33.3824 32.539 33.624C30.9632 33.8657 29.3536 33.7588 27.8236 33.3109L3.40174 26.1984C3.2414 26.155 3.09132 26.0801 2.96028 25.978C2.82923 25.8759 2.71986 25.7487 2.63853 25.6038C2.55721 25.459 2.50558 25.2994 2.48666 25.1343C2.46773 24.9693 2.48189 24.8021 2.52831 24.6426C2.57472 24.4831 2.65247 24.3345 2.757 24.2054C2.86152 24.0763 2.99074 23.9693 3.13709 23.8907C3.28344 23.8121 3.44398 23.7634 3.60935 23.7476C3.77471 23.7318 3.94157 23.749 4.10018 23.7984L15.9752 27.2563L20.1142 23.125L13.4064 21.2016C13.2485 21.1564 13.1011 21.0806 12.9725 20.9785C12.8439 20.8764 12.7367 20.7499 12.6569 20.6063C12.4959 20.3164 12.4567 19.9744 12.5478 19.6555C12.593 19.4976 12.6688 19.3501 12.7709 19.2215C12.873 19.0929 12.9995 18.9857 13.1431 18.906C13.433 18.7449 13.775 18.7057 14.0939 18.7969L22.8439 21.2969C23.0533 21.3566 23.2434 21.47 23.3954 21.6259C23.5474 21.7817 23.6562 21.9745 23.7108 22.1852C23.7654 22.396 23.764 22.6173 23.7068 22.8274C23.6496 23.0374 23.5385 23.2289 23.3846 23.3828L18.7127 28.0547L28.5236 30.9109C29.7031 31.2564 30.9441 31.3389 32.1589 31.1526C33.3738 30.9663 34.533 30.5158 35.5549 29.8328C35.6914 29.7417 35.8446 29.6784 36.0056 29.6465C36.1666 29.6146 36.3324 29.6147 36.4933 29.6468C36.6543 29.679 36.8074 29.7425 36.9438 29.8338C37.0802 29.9251 37.1974 30.0424 37.2885 30.1789C37.3796 30.3155 37.4429 30.4686 37.4748 30.6297C37.5067 30.7907 37.5066 30.9564 37.4744 31.1174C37.4423 31.2784 37.3788 31.4314 37.2875 31.5679C37.1962 31.7043 37.0789 31.8214 36.9424 31.9125H36.9439Z"
                fill="currentColor" />
        </symbol>
        <symbol id="swimming-pool" viewBox="0 0 40 40" fill="none">
            <path
                d="M13.75 23.3422C14.0815 23.3422 14.3995 23.2105 14.6339 22.9761C14.8683 22.7417 15 22.4237 15 22.0922V20H25V22.3891C25 22.7206 25.1317 23.0385 25.3661 23.2729C25.6005 23.5074 25.9185 23.6391 26.25 23.6391C26.5815 23.6391 26.8995 23.5074 27.1339 23.2729C27.3683 23.0385 27.5 22.7206 27.5 22.3891V5C27.5 4.66848 27.3683 4.35054 27.1339 4.11612C26.8995 3.8817 26.5815 3.75 26.25 3.75C25.9185 3.75 25.6005 3.8817 25.3661 4.11612C25.1317 4.35054 25 4.66848 25 5V7.5H15V5C15 4.66848 14.8683 4.35054 14.6339 4.11612C14.3995 3.8817 14.0815 3.75 13.75 3.75C13.4185 3.75 13.1005 3.8817 12.8661 4.11612C12.6317 4.35054 12.5 4.66848 12.5 5V22.0922C12.5 22.4237 12.6317 22.7417 12.8661 22.9761C13.1005 23.2105 13.4185 23.3422 13.75 23.3422ZM15 17.5V15H25V17.5H15ZM25 10V12.5H15V10H25ZM3.75 26.25C3.75 25.9185 3.8817 25.6005 4.11612 25.3661C4.35054 25.1317 4.66848 25 5 25C7.25312 25 8.46719 25.8094 9.44375 26.4594C10.3125 27.0406 11.0031 27.5 12.5 27.5C13.9969 27.5 14.6875 27.0406 15.5562 26.4594C16.5312 25.8094 17.7437 25 19.9984 25C22.2531 25 23.4672 25.8094 24.4422 26.4594C25.3141 27.0406 26.0047 27.5 27.5 27.5C28.9953 27.5 29.6875 27.0406 30.5562 26.4594C31.5328 25.8094 32.7437 25 35 25C35.3315 25 35.6495 25.1317 35.8839 25.3661C36.1183 25.6005 36.25 25.9185 36.25 26.25C36.25 26.5815 36.1183 26.8995 35.8839 27.1339C35.6495 27.3683 35.3315 27.5 35 27.5C33.5031 27.5 32.8125 27.9594 31.9438 28.5406C30.9672 29.1906 29.7563 30 27.5 30C25.2437 30 24.0312 29.1906 23.0562 28.5406C22.1875 27.9594 21.4953 27.5 20 27.5C18.5047 27.5 17.8125 27.9594 16.9438 28.5406C15.9688 29.1906 14.7563 30 12.5016 30C10.2469 30 9.03438 29.1906 8.05781 28.5406C7.1875 27.9594 6.49688 27.5 5 27.5C4.66848 27.5 4.35054 27.3683 4.11612 27.1339C3.8817 26.8995 3.75 26.5815 3.75 26.25ZM36.25 32.5C36.25 32.8315 36.1183 33.1495 35.8839 33.3839C35.6495 33.6183 35.3315 33.75 35 33.75C33.5031 33.75 32.8125 34.2094 31.9438 34.7906C30.9672 35.4406 29.7563 36.25 27.5 36.25C25.2437 36.25 24.0312 35.4406 23.0562 34.7906C22.1875 34.2094 21.4953 33.75 20 33.75C18.5047 33.75 17.8125 34.2094 16.9438 34.7906C15.9688 35.4406 14.7563 36.25 12.5016 36.25C10.2469 36.25 9.03438 35.4406 8.05781 34.7906C7.1875 34.2094 6.49688 33.75 5 33.75C4.66848 33.75 4.35054 33.6183 4.11612 33.3839C3.8817 33.1495 3.75 32.8315 3.75 32.5C3.75 32.1685 3.8817 31.8505 4.11612 31.6161C4.35054 31.3817 4.66848 31.25 5 31.25C7.25312 31.25 8.46719 32.0594 9.44375 32.7094C10.3125 33.2906 11.0031 33.75 12.5 33.75C13.9969 33.75 14.6875 33.2906 15.5562 32.7094C16.5312 32.0594 17.7437 31.25 19.9984 31.25C22.2531 31.25 23.4672 32.0594 24.4422 32.7094C25.3141 33.2906 26.0047 33.75 27.5 33.75C28.9953 33.75 29.6875 33.2906 30.5562 32.7094C31.5328 32.0594 32.7437 31.25 35 31.25C35.3315 31.25 35.6495 31.3817 35.8839 31.6161C36.1183 31.8505 36.25 32.1685 36.25 32.5Z"
                fill="currentColor" />
        </symbol>
        <symbol id="user" viewBox="0 0 24 24" fill="none">
            <path
                d="M21.6489 19.8751C20.2211 17.4067 18.0208 15.6367 15.4529 14.7976C16.7231 14.0415 17.7099 12.8893 18.2619 11.518C18.8139 10.1468 18.9004 8.63224 18.5083 7.20701C18.1162 5.78178 17.2671 4.52467 16.0914 3.62873C14.9156 2.73279 13.4783 2.24756 12.0001 2.24756C10.5219 2.24756 9.08463 2.73279 7.90891 3.62873C6.73318 4.52467 5.88406 5.78178 5.49195 7.20701C5.09984 8.63224 5.18641 10.1468 5.73837 11.518C6.29033 12.8893 7.27716 14.0415 8.54732 14.7976C5.97951 15.6357 3.77919 17.4057 2.35138 19.8751C2.29902 19.9605 2.26429 20.0555 2.24924 20.1545C2.23419 20.2535 2.23912 20.3545 2.26375 20.4516C2.28837 20.5487 2.33219 20.6399 2.39262 20.7197C2.45305 20.7996 2.52887 20.8666 2.61559 20.9167C2.70232 20.9667 2.7982 20.999 2.89758 21.0114C2.99695 21.0238 3.09782 21.0163 3.19421 20.9891C3.29061 20.9619 3.38059 20.9157 3.45884 20.8532C3.53709 20.7907 3.60203 20.7131 3.64982 20.6251C5.41607 17.5726 8.53794 15.7501 12.0001 15.7501C15.4623 15.7501 18.5842 17.5726 20.3504 20.6251C20.3982 20.7131 20.4632 20.7907 20.5414 20.8532C20.6197 20.9157 20.7097 20.9619 20.806 20.9891C20.9024 21.0163 21.0033 21.0238 21.1027 21.0114C21.2021 20.999 21.2979 20.9667 21.3847 20.9167C21.4714 20.8666 21.5472 20.7996 21.6076 20.7197C21.6681 20.6399 21.7119 20.5487 21.7365 20.4516C21.7611 20.3545 21.7661 20.2535 21.751 20.1545C21.736 20.0555 21.7012 19.9605 21.6489 19.8751ZM6.75013 9.00011C6.75013 7.96176 7.05804 6.94672 7.63492 6.08337C8.21179 5.22001 9.03173 4.5471 9.99104 4.14974C10.9504 3.75238 12.006 3.64841 13.0244 3.85099C14.0428 4.05356 14.9782 4.55357 15.7124 5.2878C16.4467 6.02202 16.9467 6.95748 17.1493 7.97589C17.3518 8.99429 17.2479 10.0499 16.8505 11.0092C16.4531 11.9685 15.7802 12.7884 14.9169 13.3653C14.0535 13.9422 13.0385 14.2501 12.0001 14.2501C10.6082 14.2486 9.27371 13.695 8.28947 12.7108C7.30522 11.7265 6.75162 10.392 6.75013 9.00011Z"
                fill="currentColor" />
        </symbol>
        <symbol id="users" viewBox="0 0 24 24" fill="none">
            <path
                d="M10.9921 14.805C11.9973 14.1358 12.7605 13.1609 13.1687 12.0244C13.577 10.8879 13.6087 9.65024 13.2591 8.49437C12.9095 7.3385 12.1973 6.32581 11.2276 5.60605C10.258 4.88629 9.0825 4.49768 7.87492 4.49768C6.66735 4.49768 5.49184 4.88629 4.52221 5.60605C3.55258 6.32581 2.84032 7.3385 2.49076 8.49437C2.1412 9.65024 2.17288 10.8879 2.58114 12.0244C2.9894 13.1609 3.75255 14.1358 4.75774 14.805C2.93945 15.4751 1.38659 16.7152 0.330862 18.3403C0.275377 18.4227 0.236837 18.5154 0.217482 18.6129C0.198127 18.7104 0.198344 18.8108 0.218119 18.9082C0.237895 19.0056 0.276835 19.0981 0.332676 19.1803C0.388516 19.2625 0.460144 19.3328 0.543396 19.3871C0.626647 19.4414 0.719861 19.4787 0.81762 19.4966C0.915378 19.5146 1.01573 19.5129 1.11285 19.4917C1.20996 19.4706 1.3019 19.4303 1.38332 19.3733C1.46473 19.3163 1.53401 19.2437 1.58711 19.1597C2.2681 18.1123 3.19995 17.2516 4.29802 16.6558C5.3961 16.0599 6.62562 15.7479 7.87492 15.7479C9.12423 15.7479 10.3538 16.0599 11.4518 16.6558C12.5499 17.2516 13.4817 18.1123 14.1627 19.1597C14.2727 19.3231 14.4427 19.4368 14.6358 19.476C14.8289 19.5152 15.0297 19.4768 15.1947 19.3692C15.3598 19.2615 15.4758 19.0932 15.5178 18.9007C15.5598 18.7082 15.5243 18.5068 15.419 18.3403C14.3633 16.7152 12.8104 15.4751 10.9921 14.805ZM3.74992 10.125C3.74992 9.30911 3.99185 8.51159 4.44511 7.83324C4.89837 7.15488 5.54261 6.62617 6.29636 6.31396C7.0501 6.00175 7.8795 5.92006 8.67967 6.07922C9.47984 6.23839 10.2148 6.63126 10.7917 7.20815C11.3686 7.78504 11.7615 8.52004 11.9207 9.32022C12.0798 10.1204 11.9981 10.9498 11.6859 11.7035C11.3737 12.4573 10.845 13.1015 10.1667 13.5548C9.4883 14.008 8.69077 14.25 7.87492 14.25C6.78129 14.2487 5.7328 13.8137 4.95948 13.0404C4.18616 12.2671 3.75117 11.2186 3.74992 10.125ZM23.4506 19.3781C23.284 19.4867 23.081 19.5247 22.8864 19.4838C22.6918 19.4428 22.5214 19.3262 22.4127 19.1597C21.7326 18.1116 20.8008 17.2506 19.7025 16.655C18.6042 16.0594 17.3743 15.7483 16.1249 15.75C15.926 15.75 15.7352 15.6709 15.5946 15.5303C15.4539 15.3896 15.3749 15.1989 15.3749 15C15.3749 14.8011 15.4539 14.6103 15.5946 14.4696C15.7352 14.329 15.926 14.25 16.1249 14.25C16.7324 14.2494 17.3322 14.1147 17.8816 13.8554C18.431 13.5961 18.9163 13.2187 19.3029 12.7501C19.6895 12.2815 19.9678 11.7334 20.118 11.1448C20.2682 10.5561 20.2865 9.94162 20.1716 9.3451C20.0568 8.74859 19.8116 8.1848 19.4536 7.69402C19.0956 7.20325 18.6337 6.7976 18.1007 6.50606C17.5678 6.21452 16.977 6.04429 16.3707 6.00752C15.7643 5.97076 15.1573 6.06838 14.5931 6.2934C14.501 6.33317 14.402 6.3541 14.3018 6.35495C14.2016 6.35579 14.1022 6.33654 14.0095 6.29833C13.9169 6.26012 13.8328 6.20373 13.7623 6.13248C13.6918 6.06123 13.6363 5.97658 13.5991 5.88352C13.5619 5.79046 13.5437 5.69088 13.5456 5.59067C13.5475 5.49046 13.5695 5.39165 13.6102 5.30007C13.651 5.2085 13.7097 5.12602 13.7828 5.05752C13.856 4.98901 13.9421 4.93586 14.0362 4.90121C15.3275 4.3862 16.7639 4.36767 18.0681 4.84919C19.3723 5.33071 20.452 6.27817 21.0989 7.50879C21.7458 8.73941 21.914 10.166 21.5711 11.5133C21.2283 12.8607 20.3986 14.0333 19.2421 14.805C21.0604 15.4751 22.6133 16.7152 23.669 18.3403C23.7776 18.5069 23.8156 18.7098 23.7747 18.9044C23.7337 19.099 23.6171 19.2694 23.4506 19.3781Z"
                fill="currentColor" />
        </symbol>
        <symbol id="wine" viewBox="0 0 40 40" fill="none">
            <path
                d="M32.0827 16.1984L28.6811 4.64687C28.6049 4.38807 28.447 4.16087 28.231 3.99922C28.015 3.83757 27.7524 3.75014 27.4827 3.75H12.517C12.2472 3.75014 11.9847 3.83757 11.7687 3.99922C11.5527 4.16087 11.3948 4.38807 11.3186 4.64687L7.91703 16.1984C7.38334 17.969 7.35541 19.8535 7.83639 21.6391C8.31737 23.4247 9.28809 25.0402 10.6389 26.3031C12.8609 28.3869 15.716 29.6679 18.7498 29.9422V36.25H13.7498C13.4183 36.25 13.1004 36.3817 12.866 36.6161C12.6315 36.8505 12.4998 37.1685 12.4998 37.5C12.4998 37.8315 12.6315 38.1495 12.866 38.3839C13.1004 38.6183 13.4183 38.75 13.7498 38.75H26.2498C26.5814 38.75 26.8993 38.6183 27.1337 38.3839C27.3681 38.1495 27.4998 37.8315 27.4998 37.5C27.4998 37.1685 27.3681 36.8505 27.1337 36.6161C26.8993 36.3817 26.5814 36.25 26.2498 36.25H21.2498V29.9422C24.2837 29.6676 27.1386 28.3867 29.3608 26.3031C30.7116 25.0402 31.6823 23.4247 32.1633 21.6391C32.6443 19.8535 32.6163 17.969 32.0827 16.1984ZM13.4514 6.25H26.5483L29.6873 16.9047C29.7014 16.9516 29.7139 16.9984 29.7264 17.0453C26.3795 18.2453 22.6108 16.7953 20.5655 15.7594C16.6295 13.7672 13.5045 13.5141 11.1998 13.8953L13.4514 6.25ZM27.6561 24.4766C25.5805 26.4201 22.8434 27.5015 19.9998 27.5015C17.1563 27.5015 14.4192 26.4201 12.3436 24.4766C11.3328 23.5293 10.6069 22.3183 10.248 20.9803C9.88906 19.6424 9.91135 18.2307 10.3123 16.9047L10.3827 16.6672C12.2577 16.0328 15.2373 15.8641 19.4342 17.9906C21.1764 18.8734 23.9905 19.9984 27.0014 19.9984C28.0077 20.0033 29.0097 19.8666 29.978 19.5922C29.8504 21.4556 29.0206 23.2012 27.6561 24.4766Z"
                fill="currentColor" />
        </symbol>
        <symbol id="yoga" viewBox="0 0 40 40" fill="none">
            <path
                d="M20 12.5C20.9889 12.5 21.9556 12.2068 22.7779 11.6574C23.6001 11.1079 24.241 10.327 24.6194 9.41342C24.9978 8.49979 25.0969 7.49446 24.9039 6.52455C24.711 5.55465 24.2348 4.66373 23.5355 3.96447C22.8363 3.26521 21.9454 2.789 20.9755 2.59608C20.0055 2.40315 19.0002 2.50217 18.0866 2.8806C17.173 3.25904 16.3921 3.89991 15.8427 4.72215C15.2932 5.5444 15 6.5111 15 7.5C15 8.82609 15.5268 10.0979 16.4645 11.0355C17.4021 11.9732 18.6739 12.5 20 12.5ZM20 5C20.4945 5 20.9778 5.14662 21.3889 5.42133C21.8 5.69603 22.1205 6.08648 22.3097 6.54329C22.4989 7.00011 22.5484 7.50278 22.452 7.98773C22.3555 8.47268 22.1174 8.91814 21.7678 9.26777C21.4181 9.6174 20.9727 9.8555 20.4877 9.95197C20.0028 10.0484 19.5001 9.99892 19.0433 9.8097C18.5865 9.62048 18.196 9.30005 17.9213 8.88893C17.6466 8.4778 17.5 7.99446 17.5 7.5C17.5 6.83696 17.7634 6.20108 18.2322 5.73223C18.7011 5.26339 19.337 5 20 5ZM35 16.25C35 16.5815 34.8683 16.8995 34.6339 17.1339C34.3995 17.3683 34.0815 17.5 33.75 17.5H21.25V21.675L29.2422 25.1016C29.467 25.1979 29.6586 25.358 29.7933 25.5621C29.928 25.7663 29.9999 26.0054 30 26.25V33.75C30 34.0815 29.8683 34.3995 29.6339 34.6339C29.3995 34.8683 29.0815 35 28.75 35C28.4185 35 28.1005 34.8683 27.8661 34.6339C27.6317 34.3995 27.5 34.0815 27.5 33.75V27.075L20.2422 23.9641L8.33594 34.6875C8.08937 34.9092 7.76483 35.0239 7.43371 35.0063C7.10259 34.9887 6.79202 34.8403 6.57031 34.5938C6.34861 34.3472 6.23393 34.0226 6.25151 33.6915C6.2691 33.3604 6.41749 33.0498 6.66406 32.8281L18.75 21.9438V17.5H6.25C5.91848 17.5 5.60054 17.3683 5.36612 17.1339C5.1317 16.8995 5 16.5815 5 16.25C5 15.9185 5.1317 15.6005 5.36612 15.3661C5.60054 15.1317 5.91848 15 6.25 15H33.75C34.0815 15 34.3995 15.1317 34.6339 15.3661C34.8683 15.6005 35 15.9185 35 16.25Z"
                fill="currentColor" />
        </symbol>

        <symbol id="bathtub" viewBox="0 0 24 24" fill="none">
            <path
                d="M22.5 8.99997H19.5C19.5 8.80106 19.421 8.6103 19.2803 8.46964C19.1397 8.32899 18.9489 8.24997 18.75 8.24997H12.75C12.5511 8.24997 12.3603 8.32899 12.2197 8.46964C12.079 8.6103 12 8.80106 12 8.99997H6V4.87497C6 4.5766 6.11853 4.29046 6.3295 4.07948C6.54048 3.8685 6.82663 3.74997 7.125 3.74997C7.38867 3.7489 7.64493 3.8372 7.85196 4.00048C8.059 4.16376 8.2046 4.39237 8.265 4.64904C8.3062 4.84232 8.42202 5.01153 8.58729 5.11989C8.75255 5.22825 8.95391 5.267 9.14759 5.22772C9.34127 5.18844 9.51162 5.0743 9.62162 4.91012C9.73161 4.74593 9.77236 4.54497 9.735 4.35091C9.60766 3.75411 9.27862 3.21939 8.80326 2.83674C8.3279 2.4541 7.73523 2.24688 7.125 2.24997C6.42881 2.24997 5.76113 2.52653 5.26884 3.01882C4.77656 3.5111 4.5 4.17878 4.5 4.87497V8.99997H1.5C1.30109 8.99997 1.11032 9.07899 0.96967 9.21964C0.829018 9.3603 0.75 9.55106 0.75 9.74997V13.5C0.751489 14.8919 1.30509 16.2264 2.28933 17.2106C3.27358 18.1949 4.60807 18.7485 6 18.75V20.25C6 20.4489 6.07902 20.6397 6.21967 20.7803C6.36032 20.921 6.55109 21 6.75 21C6.94891 21 7.13968 20.921 7.28033 20.7803C7.42098 20.6397 7.5 20.4489 7.5 20.25V18.75H16.5V20.25C16.5 20.4489 16.579 20.6397 16.7197 20.7803C16.8603 20.921 17.0511 21 17.25 21C17.4489 21 17.6397 20.921 17.7803 20.7803C17.921 20.6397 18 20.4489 18 20.25V18.75C19.3919 18.7485 20.7264 18.1949 21.7107 17.2106C22.6949 16.2264 23.2485 14.8919 23.25 13.5V9.74997C23.25 9.55106 23.171 9.3603 23.0303 9.21964C22.8897 9.07899 22.6989 8.99997 22.5 8.99997ZM18 9.74997V12.75H13.5V9.74997H18ZM21.75 13.5C21.75 13.9924 21.653 14.4801 21.4645 14.935C21.2761 15.39 20.9999 15.8034 20.6516 16.1516C20.3034 16.4998 19.89 16.7761 19.4351 16.9645C18.9801 17.153 18.4925 17.25 18 17.25H6C5.00544 17.25 4.05161 16.8549 3.34835 16.1516C2.64509 15.4484 2.25 14.4945 2.25 13.5V10.5H12V13.5C12 13.6989 12.079 13.8897 12.2197 14.0303C12.3603 14.171 12.5511 14.25 12.75 14.25H18.75C18.9489 14.25 19.1397 14.171 19.2803 14.0303C19.421 13.8897 19.5 13.6989 19.5 13.5V10.5H21.75V13.5Z"
                fill="currentColor" />
        </symbol>

        <symbol id="check-circle" viewBox="0 0 20 20" fill="none">
            <path
                d="M10 1.875C8.39303 1.875 6.82214 2.35152 5.486 3.24431C4.14985 4.1371 3.10844 5.40605 2.49348 6.8907C1.87852 8.37535 1.71762 10.009 2.03112 11.5851C2.34463 13.1612 3.11846 14.6089 4.25476 15.7452C5.39106 16.8815 6.8388 17.6554 8.4149 17.9689C9.99099 18.2824 11.6247 18.1215 13.1093 17.5065C14.594 16.8916 15.8629 15.8502 16.7557 14.514C17.6485 13.1779 18.125 11.607 18.125 10C18.1227 7.84581 17.266 5.78051 15.7427 4.25727C14.2195 2.73403 12.1542 1.87727 10 1.875ZM13.5672 8.56719L9.19219 12.9422C9.13415 13.0003 9.06522 13.0464 8.98934 13.0779C8.91347 13.1093 8.83214 13.1255 8.75 13.1255C8.66787 13.1255 8.58654 13.1093 8.51067 13.0779C8.43479 13.0464 8.36586 13.0003 8.30782 12.9422L6.43282 11.0672C6.31554 10.9499 6.24966 10.7909 6.24966 10.625C6.24966 10.4591 6.31554 10.3001 6.43282 10.1828C6.55009 10.0655 6.70915 9.99965 6.875 9.99965C7.04086 9.99965 7.19992 10.0655 7.31719 10.1828L8.75 11.6164L12.6828 7.68281C12.7409 7.62474 12.8098 7.57868 12.8857 7.54725C12.9616 7.51583 13.0429 7.49965 13.125 7.49965C13.2071 7.49965 13.2884 7.51583 13.3643 7.54725C13.4402 7.57868 13.5091 7.62474 13.5672 7.68281C13.6253 7.74088 13.6713 7.80982 13.7027 7.88569C13.7342 7.96156 13.7504 8.04288 13.7504 8.125C13.7504 8.20712 13.7342 8.28844 13.7027 8.36431C13.6713 8.44018 13.6253 8.50912 13.5672 8.56719Z"
                fill="currentColor" />
        </symbol>

        <symbol id="copy" viewBox="0 0 20 20" fill="none">
            <path
                d="M16.875 2.5H6.875C6.70924 2.5 6.55027 2.56585 6.43306 2.68306C6.31585 2.80027 6.25 2.95924 6.25 3.125V6.25H3.125C2.95924 6.25 2.80027 6.31585 2.68306 6.43306C2.56585 6.55027 2.5 6.70924 2.5 6.875V16.875C2.5 17.0408 2.56585 17.1997 2.68306 17.3169C2.80027 17.4342 2.95924 17.5 3.125 17.5H13.125C13.2908 17.5 13.4497 17.4342 13.5669 17.3169C13.6842 17.1997 13.75 17.0408 13.75 16.875V13.75H16.875C17.0408 13.75 17.1997 13.6842 17.3169 13.5669C17.4342 13.4497 17.5 13.2908 17.5 13.125V3.125C17.5 2.95924 17.4342 2.80027 17.3169 2.68306C17.1997 2.56585 17.0408 2.5 16.875 2.5ZM12.5 16.25H3.75V7.5H12.5V16.25ZM16.25 12.5H13.75V6.875C13.75 6.70924 13.6842 6.55027 13.5669 6.43306C13.4497 6.31585 13.2908 6.25 13.125 6.25H7.5V3.75H16.25V12.5Z"
                fill="currentColor" />
        </symbol>

        <symbol id="facebook" viewBox="0 0 16 16" fill="none">
            <path
                d="M6.55465 14.6673V8.80065H4.44531V6.40065H6.55465V4.56665C6.55465 2.48465 7.79531 1.33398 9.69331 1.33398C10.3164 1.34262 10.9381 1.39676 11.5533 1.49598V3.54132H10.506C10.3274 3.51736 10.1457 3.53393 9.97438 3.58979C9.80311 3.64565 9.64658 3.73937 9.51645 3.864C9.38631 3.98862 9.28591 4.14094 9.22271 4.30968C9.15951 4.4784 9.13511 4.6592 9.15131 4.83865V6.40065H11.456L11.088 8.80065H9.15465V14.6673H6.55465Z"
                fill="currentColor" />
        </symbol>

        <symbol id="instagram" viewBox="0 0 16 16" fill="none">
            <path
                d="M14.6293 5.25398C14.6163 4.70085 14.5127 4.15358 14.3226 3.63398C14.1548 3.18852 13.8907 2.7856 13.5493 2.45398C13.2177 2.11249 12.8147 1.84842 12.3693 1.68065C11.8497 1.49054 11.3024 1.38695 10.7493 1.37398C10.0426 1.33398 9.81594 1.33398 8.0026 1.33398C6.18927 1.33398 5.9626 1.33398 5.25594 1.37398C4.7028 1.38695 4.15554 1.49054 3.63594 1.68065C3.19048 1.84842 2.78755 2.11249 2.45594 2.45398C2.11422 2.7841 1.85206 3.18761 1.68927 3.63398C1.49338 4.15221 1.38741 4.70008 1.37594 5.25398C1.33594 5.96065 1.33594 6.18732 1.33594 8.00065C1.33594 9.81398 1.33594 10.0407 1.37594 10.7473C1.38741 11.3012 1.49338 11.8491 1.68927 12.3673C1.85206 12.8137 2.11422 13.2172 2.45594 13.5473C2.78755 13.8888 3.19048 14.1529 3.63594 14.3207C4.15554 14.5108 4.7028 14.6144 5.25594 14.6273C5.9626 14.6673 6.18927 14.6673 8.0026 14.6673C9.81594 14.6673 10.0426 14.6673 10.7493 14.6273C11.3024 14.6144 11.8497 14.5108 12.3693 14.3207C12.8115 14.1467 13.2133 13.8835 13.5493 13.5474C13.8854 13.2113 14.1486 12.8096 14.3226 12.3673C14.5127 11.8477 14.6163 11.3005 14.6293 10.7473C14.6293 10.0407 14.6693 9.81398 14.6693 8.00065C14.6693 6.18732 14.6693 5.96065 14.6293 5.25398ZM13.4293 10.6673C13.4244 11.0905 13.3478 11.5098 13.2026 11.9073C13.0911 12.1949 12.9208 12.456 12.7027 12.6741C12.4846 12.8922 12.2235 13.0625 11.9359 13.174C11.5384 13.3192 11.1191 13.3958 10.6959 13.4007C10.0293 13.434 9.7826 13.4406 8.02927 13.4406C6.27594 13.4406 6.02927 13.4407 5.3626 13.4007C4.92309 13.4105 4.48528 13.3428 4.06927 13.2007C3.78173 13.0891 3.52059 12.9189 3.3025 12.7007C3.08442 12.4827 2.91416 12.2215 2.8026 11.934C2.65444 11.5281 2.57774 11.0995 2.57594 10.6673C2.57594 10.0007 2.53594 9.75398 2.53594 8.00065C2.53594 6.24732 2.53594 6.00065 2.57594 5.33398C2.57774 4.90184 2.65444 4.47327 2.8026 4.06732C2.91416 3.77978 3.08442 3.51864 3.3025 3.30055C3.52059 3.08246 3.78173 2.91221 4.06927 2.80065C4.47522 2.65248 4.90379 2.57579 5.33594 2.57398C6.0026 2.57398 6.24927 2.53398 8.0026 2.53398C9.75594 2.53398 10.0026 2.53398 10.6693 2.57398C11.0925 2.57884 11.5117 2.65548 11.9093 2.80065C12.1968 2.91221 12.4579 3.08246 12.676 3.30055C12.8941 3.51864 13.0644 3.77978 13.1759 4.06732C13.3332 4.47165 13.4189 4.90026 13.4293 5.33398C13.4626 6.00065 13.4693 6.24732 13.4693 8.00065C13.4693 9.75398 13.4626 10.0007 13.4293 10.6673Z"
                fill="currentColor" />
            <path
                d="M7.99698 4.57227C7.31925 4.57227 6.65674 4.77324 6.09323 5.14977C5.52971 5.52629 5.09051 6.06147 4.83115 6.6876C4.57179 7.31373 4.50394 8.00273 4.63615 8.66747C4.76837 9.33213 5.09473 9.94273 5.57396 10.4219C6.05319 10.9012 6.66378 11.2275 7.32845 11.3597C7.99318 11.492 8.68218 11.4241 9.30831 11.1647C9.93445 10.9054 10.4696 10.4662 10.8462 9.90267C11.2226 9.3392 11.4236 8.67667 11.4236 7.99893C11.4236 7.09013 11.0626 6.21854 10.42 5.57591C9.77738 4.93329 8.90578 4.57227 7.99698 4.57227ZM7.99698 10.2189C7.55791 10.2189 7.12871 10.0887 6.76365 9.8448C6.39854 9.60087 6.11399 9.25413 5.94597 8.84847C5.77794 8.44287 5.73398 7.99647 5.81964 7.5658C5.90529 7.1352 6.11673 6.7396 6.4272 6.42915C6.73765 6.11869 7.13325 5.90725 7.56385 5.82159C7.99451 5.73593 8.44091 5.77989 8.84651 5.94792C9.25218 6.11595 9.59891 6.40049 9.84285 6.7656C10.0868 7.13067 10.217 7.55987 10.217 7.99893C10.217 8.29047 10.1596 8.57913 10.048 8.84847C9.93645 9.11787 9.77291 9.36253 9.56678 9.56873C9.36058 9.77487 9.11591 9.9384 8.84651 10.0499C8.57718 10.1615 8.28851 10.2189 7.99698 10.2189Z"
                fill="currentColor" />
            <path
                d="M11.5578 3.63867C11.3996 3.63867 11.2449 3.68559 11.1133 3.77349C10.9818 3.8614 10.8793 3.98635 10.8187 4.13253C10.7581 4.27871 10.7423 4.43956 10.7732 4.59474C10.8041 4.74993 10.8802 4.89247 10.9921 5.00435C11.104 5.11624 11.2465 5.19243 11.4017 5.2233C11.5569 5.25416 11.7177 5.23833 11.8639 5.17777C12.0101 5.11723 12.1351 5.01469 12.223 4.88313C12.3109 4.75157 12.3578 4.59689 12.3578 4.43867C12.3578 4.2265 12.2735 4.02301 12.1235 3.87299C11.9735 3.72295 11.77 3.63867 11.5578 3.63867Z"
                fill="currentColor" />
        </symbol>

        <symbol id="martini" viewBox="0 0 24 24" fill="none">
            <path
                d="M22.2802 4.28063C22.3853 4.17573 22.4568 4.04204 22.4858 3.89648C22.5148 3.75092 22.4999 3.60002 22.4431 3.46291C22.3863 3.32579 22.29 3.20861 22.1666 3.12621C22.0432 3.04381 21.898 2.99988 21.7496 3H2.24961C2.10119 2.99988 1.95607 3.04381 1.83263 3.12621C1.70918 3.20861 1.61296 3.32579 1.55615 3.46291C1.49933 3.60002 1.48448 3.75092 1.51347 3.89648C1.54245 4.04204 1.61398 4.17573 1.71899 4.28063L11.2496 13.8103V19.5H8.24961C8.0507 19.5 7.85994 19.579 7.71929 19.7197C7.57863 19.8603 7.49961 20.0511 7.49961 20.25C7.49961 20.4489 7.57863 20.6397 7.71929 20.7803C7.85994 20.921 8.0507 21 8.24961 21H15.7496C15.9485 21 16.1393 20.921 16.2799 20.7803C16.4206 20.6397 16.4996 20.4489 16.4996 20.25C16.4996 20.0511 16.4206 19.8603 16.2799 19.7197C16.1393 19.579 15.9485 19.5 15.7496 19.5H12.7496V13.8103L22.2802 4.28063ZM4.05993 4.5H19.9393L18.4393 6H5.55993L4.05993 4.5ZM11.9996 12.4397L7.05993 7.5H16.9393L11.9996 12.4397Z"
                fill="currentColor" />
        </symbol>

        <symbol id="tag" viewBox="0 0 24 24" fill="none">
            <path
                d="M22.8103 12.75L13.5 3.43969C13.3612 3.2998 13.196 3.18889 13.014 3.11341C12.832 3.03792 12.6368 2.99938 12.4397 3.00001H3.75001C3.5511 3.00001 3.36033 3.07903 3.21968 3.21968C3.07903 3.36033 3.00001 3.5511 3.00001 3.75001V12.4397C2.99938 12.6368 3.03792 12.832 3.11341 13.014C3.18889 13.196 3.2998 13.3612 3.43969 13.5L12.75 22.8103C12.8893 22.9496 13.0547 23.0602 13.2367 23.1356C13.4187 23.211 13.6138 23.2498 13.8108 23.2498C14.0078 23.2498 14.2029 23.211 14.3849 23.1356C14.5669 23.0602 14.7323 22.9496 14.8716 22.8103L22.8103 14.8716C22.9496 14.7323 23.0602 14.5669 23.1356 14.3849C23.211 14.2029 23.2498 14.0078 23.2498 13.8108C23.2498 13.6138 23.211 13.4187 23.1356 13.2367C23.0602 13.0547 22.9496 12.8893 22.8103 12.75ZM13.8103 21.75L4.50001 12.4397V4.50001H12.4397L21.75 13.8103L13.8103 21.75ZM9.00001 7.87501C9.00001 8.09751 8.93403 8.31502 8.81041 8.50002C8.68679 8.68503 8.51109 8.82922 8.30553 8.91437C8.09996 8.99952 7.87376 9.0218 7.65553 8.97839C7.4373 8.93498 7.23685 8.82784 7.07951 8.6705C6.92218 8.51317 6.81503 8.31271 6.77162 8.09448C6.72822 7.87626 6.75049 7.65006 6.83564 7.44449C6.92079 7.23892 7.06499 7.06322 7.24999 6.9396C7.435 6.81599 7.6525 6.75001 7.87501 6.75001C8.17338 6.75001 8.45952 6.86853 8.6705 7.07951C8.88148 7.29049 9.00001 7.57664 9.00001 7.87501Z"
                fill="currentColor" />
        </symbol>

        <symbol id="whatsapp" viewBox="0 0 16 16" fill="none">
            <path
                d="M12.7 3.27353C12.0887 2.65627 11.3607 2.16684 10.5584 1.83377C9.75603 1.5007 8.89542 1.33065 8.0267 1.33353C4.3867 1.33353 1.42003 4.3002 1.42003 7.9402C1.42003 9.10687 1.7267 10.2402 2.30003 11.2402L1.3667 14.6669L4.8667 13.7469C5.83337 14.2735 6.92003 14.5535 8.0267 14.5535C11.6667 14.5535 14.6334 11.5869 14.6334 7.94687C14.6334 6.1802 13.9467 4.5202 12.7 3.27353ZM8.0267 13.4335C7.04003 13.4335 6.07337 13.1669 5.2267 12.6669L5.0267 12.5469L2.9467 13.0935L3.50003 11.0669L3.3667 10.8602C2.8184 9.9849 2.52732 8.97305 2.5267 7.9402C2.5267 4.91353 4.99337 2.44687 8.02003 2.44687C9.4867 2.44687 10.8667 3.0202 11.9 4.0602C12.4118 4.56944 12.8173 5.17523 13.0931 5.84242C13.3689 6.50961 13.5095 7.22492 13.5067 7.94687C13.52 10.9735 11.0534 13.4335 8.0267 13.4335ZM11.04 9.32687C10.8734 9.24687 10.06 8.84687 9.91337 8.78687C9.76003 8.73353 9.65337 8.70687 9.54003 8.86687C9.4267 9.03353 9.11337 9.40687 9.02003 9.51353C8.9267 9.62687 8.8267 9.6402 8.66003 9.55353C8.49337 9.47353 7.96003 9.29353 7.33337 8.73353C6.84003 8.29353 6.51337 7.75353 6.41337 7.58687C6.32003 7.4202 6.40003 7.33353 6.4867 7.24687C6.56003 7.17353 6.65337 7.05353 6.73337 6.9602C6.81337 6.86687 6.8467 6.79353 6.90003 6.68687C6.95337 6.57353 6.9267 6.4802 6.8867 6.4002C6.8467 6.3202 6.51337 5.50687 6.38003 5.17353C6.2467 4.85353 6.1067 4.89353 6.0067 4.88687H5.6867C5.57337 4.88687 5.40003 4.92687 5.2467 5.09353C5.10003 5.2602 4.67337 5.6602 4.67337 6.47353C4.67337 7.28687 5.2667 8.07353 5.3467 8.1802C5.4267 8.29353 6.51337 9.9602 8.1667 10.6735C8.56003 10.8469 8.8667 10.9469 9.1067 11.0202C9.50003 11.1469 9.86003 11.1269 10.1467 11.0869C10.4667 11.0402 11.1267 10.6869 11.26 10.3002C11.4 9.91353 11.4 9.58687 11.3534 9.51353C11.3067 9.4402 11.2067 9.40687 11.04 9.32687Z"
                fill="currentColor" />
        </symbol>

        <symbol id="wifi" viewBox="0 0 24 24" fill="none">
            <path
                d="M13.1254 19.125C13.1254 19.3475 13.0594 19.565 12.9358 19.75C12.8121 19.935 12.6364 20.0792 12.4309 20.1644C12.2253 20.2495 11.9991 20.2718 11.7809 20.2284C11.5626 20.185 11.3622 20.0778 11.2049 19.9205C11.0475 19.7632 10.9404 19.5627 10.897 19.3445C10.8536 19.1262 10.8758 18.9 10.961 18.6945C11.0461 18.4889 11.1903 18.3132 11.3753 18.1896C11.5603 18.066 11.7779 18 12.0004 18C12.2987 18 12.5849 18.1185 12.7958 18.3295C13.0068 18.5405 13.1254 18.8266 13.1254 19.125ZM22.2266 8.15624C19.3433 5.79129 15.7295 4.49878 12.0004 4.49878C8.27124 4.49878 4.65739 5.79129 1.77411 8.15624C1.69796 8.21879 1.63488 8.29571 1.58846 8.38264C1.54204 8.46956 1.5132 8.56477 1.50358 8.66284C1.49396 8.7609 1.50375 8.85991 1.5324 8.95419C1.56104 9.04847 1.60797 9.13619 1.67051 9.21234C1.73305 9.28848 1.80998 9.35157 1.8969 9.39798C1.98382 9.4444 2.07904 9.47324 2.1771 9.48286C2.37516 9.50229 2.57282 9.44224 2.72661 9.31593C5.34149 7.1716 8.61867 5.9997 12.0004 5.9997C15.382 5.9997 18.6592 7.1716 21.2741 9.31593C21.4279 9.44224 21.6256 9.50229 21.8236 9.48286C22.0217 9.46343 22.2039 9.36612 22.3302 9.21234C22.4565 9.05855 22.5166 8.86089 22.4971 8.66284C22.4777 8.46478 22.3804 8.28255 22.2266 8.15624ZM19.2191 11.5097C17.1654 9.8837 14.6227 8.999 12.0032 8.999C9.38368 8.999 6.84098 9.8837 4.78723 11.5097C4.63133 11.6333 4.53091 11.8137 4.50805 12.0113C4.4852 12.2089 4.54178 12.4075 4.66536 12.5634C4.78893 12.7193 4.96937 12.8198 5.16699 12.8426C5.36461 12.8655 5.56321 12.8089 5.71911 12.6853C7.50772 11.2695 9.72203 10.4992 12.0032 10.4992C14.2843 10.4992 16.4986 11.2695 18.2872 12.6853C18.3644 12.7465 18.4529 12.7919 18.5476 12.8189C18.6424 12.8459 18.7415 12.854 18.8394 12.8426C18.9372 12.8313 19.0319 12.8008 19.1179 12.7529C19.204 12.705 19.2798 12.6406 19.341 12.5634C19.4022 12.4862 19.4476 12.3978 19.4746 12.303C19.5016 12.2083 19.5096 12.1092 19.4983 12.0113C19.487 11.9135 19.4565 11.8188 19.4086 11.7327C19.3607 11.6467 19.2963 11.5709 19.2191 11.5097ZM16.1947 14.8622C14.9765 13.9768 13.5092 13.4999 12.0032 13.4999C10.4972 13.4999 9.02985 13.9768 7.81161 14.8622C7.65073 14.9793 7.54298 15.1555 7.51203 15.3521C7.48109 15.5486 7.5295 15.7494 7.64661 15.9103C7.76371 16.0712 7.93993 16.1789 8.1365 16.2099C8.33306 16.2408 8.53386 16.1924 8.69473 16.0753C9.65615 15.3761 10.8144 14.9995 12.0032 14.9995C13.192 14.9995 14.3502 15.3761 15.3116 16.0753C15.3913 16.1333 15.4816 16.175 15.5773 16.1981C15.6731 16.2212 15.7725 16.2252 15.8698 16.2099C15.9672 16.1946 16.0605 16.1602 16.1446 16.1088C16.2286 16.0574 16.3017 15.99 16.3597 15.9103C16.4177 15.8307 16.4594 15.7404 16.4825 15.6446C16.5056 15.5488 16.5096 15.4494 16.4943 15.3521C16.479 15.2547 16.4446 15.1614 16.3932 15.0773C16.3418 14.9933 16.2744 14.9202 16.1947 14.8622Z"
                fill="currentColor" />
        </symbol>
        <symbol id="youtube" viewBox="0 0 16 16" fill="none">
            <path d="M9.33333 7.99984L7 9.33317V6.6665L9.33333 7.99984Z" fill="currentColor" stroke="currentColor"
                stroke-linecap="round" stroke-linejoin="round" />
            <path
                d="M1.3335 8.47194V7.52793C1.3335 5.59793 1.3335 4.6326 1.93683 4.01193C2.54083 3.3906 3.4915 3.36393 5.39216 3.30993C6.29216 3.2846 7.21216 3.2666 8.00016 3.2666C8.78816 3.2666 9.7075 3.2846 10.6082 3.30993C12.5088 3.36393 13.4595 3.3906 14.0628 4.01193C14.6662 4.63327 14.6668 5.5986 14.6668 7.52793V8.47127C14.6668 10.4019 14.6668 11.3666 14.0635 11.9879C13.4595 12.6086 12.5095 12.6359 10.6082 12.6893C9.70816 12.7153 8.78816 12.7333 8.00016 12.7333C7.21216 12.7333 6.29283 12.7153 5.39216 12.6893C3.4915 12.6359 2.54083 12.6093 1.93683 11.9879C1.33283 11.3666 1.3335 10.4013 1.3335 8.47194Z"
                stroke="currentColor" />
        </symbol>

    </defs>
</svg>